# xmcd CD database file
#
# Track frame offsets:
#	150
#	13605
#	25690
#	39630
#	63142
#	81077
#	97105
#	111417
#	123965
#	134702
#	148507
#	165440
#	183647
#	199020
#	211575
#	226090
#
# Disc length: 3240 seconds
#
# Revision: 6
# Processed by: cddbd v1.5.2PL0 Copyright (c) Steve Scherf et al.
# Submitted via: CDex 1.51
#
DISCID=d40ca610
DTITLE=Dolly Parton - Favourites
DYEAR=1984
DGENRE=Country
TTITLE0=Here You Come Again - Dolly Parton
TTITLE1=Jolene - Dolly Parton
TTITLE2=I Will Always Love You - Dolly Parton
TTITLE3=You Are - Dolly Parton
TTITLE4=Starting Over Again - Dolly Parton
TTITLE5=Heartbreaker - Dolly Parton
TTITLE6=Lonely Comin' Down - Dolly Parton
TTITLE7=9 To 5 - Dolly Parton
TTITLE8=Love Is Like A Butterfly - Dolly Parton
TTITLE9=Send Me The Pillow That You Dream On - Dolly Parton
TTITLE10=We Had It All - Dolly Parton
TTITLE11=The House Of The Rising Sun - Dolly Parton
TTITLE12=Old Flames (Can't Hold A Candle To You) - Dolly Parton
TTITLE13=Help! - Dolly Parton
TTITLE14=Downtown - Dolly Parton
TTITLE15=Save The Last Dance For Me - Dolly Parton
EXTD=YEAR: 1984
EXTT0=
EXTT1=
EXTT2=
EXTT3=
EXTT4=
EXTT5=
EXTT6=
EXTT7=
EXTT8=
EXTT9=
EXTT10=
EXTT11=
EXTT12=
EXTT13=
EXTT14=
EXTT15=
PLAYORDER=
